<svg width="172" height="31" viewBox="0 0 172 31" fill="none" xmlns="http://www.w3.org/2000/svg">
<path d="M171.5 0.399902H0V30.5999H171.5V0.399902Z" fill="#2F2483"/>
<path fill-rule="evenodd" clip-rule="evenodd" d="M8.80005 27.2998H55.3V3.7998H8.80005V27.2998Z" fill="white"/>
<path fill-rule="evenodd" clip-rule="evenodd" d="M26.3 25.6999H28.2L38.7 5.3999H36.8L26.3 25.6999ZM22.5 8.3999H33.6L32 11.4999H22.5C20.8 11.4999 19.4 12.4999 18.8 13.9999H30.8L30.2 15.1999H11.4L12.1 13.9999H15.6C16.3 10.7999 19.1 8.3999 22.5 8.3999ZM29.1 16.9999H18.8C19.4 18.4999 20.8 19.4999 22.5 19.4999H27.9L26.3 22.5999H22.6C19.2 22.5999 16.4 20.1999 15.6 16.9999H10.4L11.1 15.7999H29.9L29.1 16.9999ZM34.6 22.5999H38.7L44 12.2999L49.3 22.5999H53.4L46.1 8.3999H42L34.6 22.5999ZM29.7 25.6999H31.6L42 5.3999H40.1L29.7 25.6999Z" fill="#2F2483"/>
<path fill-rule="evenodd" clip-rule="evenodd" d="M101.6 14.5999C99.9 13.6999 97.6 13.1999 94.5 13.0999C92.3 12.9999 90.3 13.4999 88.4 14.0999V11.6999H102.2V7.8999H84.6V23.2999H98.9C100.3 23.1999 101.6 22.6999 102.5 21.9999C103.9 20.8999 104.8 19.3999 104.7 18.3999C104.5 16.7999 103.3 15.4999 101.6 14.5999ZM98.3 19.4999H88.5V17.8999C90 17.1999 92.6 16.8999 94.9 16.7999C96.2 16.7999 97.4 16.8999 98.3 17.0999C101 17.5999 101.2 19.4999 98.3 19.4999Z" fill="white"/>
<path fill-rule="evenodd" clip-rule="evenodd" d="M131.8 7.8999H127.9L120.2 17.9999L112.5 7.8999H108.6V23.2999H112.5V14.2999L119.3 23.2999H121.1L127.9 14.2999V23.2999H131.8V7.8999Z" fill="white"/>
<path fill-rule="evenodd" clip-rule="evenodd" d="M70.7 7.19995C65.1 7.19995 60.5 10.9 60.5 15.5C60.5 20.1 65.1 23.7999 70.7 23.7999C76.3 23.7999 80.9 20.1 80.9 15.5C80.8 11 76.3 7.19995 70.7 7.19995ZM70.7 20.6C67.3 20.6 64.5 18.3 64.5 15.5C64.5 12.7 67.3 10.4 70.7 10.4C74.1 10.4 76.9 12.7 76.9 15.5C76.9 18.3 74.1 20.6 70.7 20.6Z" fill="white"/>
<path d="M139.5 7.8999H135.6V23.2999H139.5V7.8999Z" fill="white"/>
<path d="M160.3 14.2998H145.7V18.1998H160.3V14.2998Z" fill="white"/>
<path d="M147.3 7.8999H143.4V23.2999H147.3V7.8999Z" fill="white"/>
<path d="M162.7 7.8999H158.8V23.2999H162.7V7.8999Z" fill="white"/>
</svg>
