<svg width="233" height="31" viewBox="0 0 233 31" fill="none" xmlns="http://www.w3.org/2000/svg">
<path d="M233 0H0V30.1676H233V0Z" fill="#2F2483"/>
<path fill-rule="evenodd" clip-rule="evenodd" d="M8.79767 26.8495H55.282L55.2515 3.31812H8.79767V26.8495Z" fill="white"/>
<path fill-rule="evenodd" clip-rule="evenodd" d="M26.3321 25.236H28.2194L38.6913 4.96191H36.804L26.3321 25.236ZM22.4964 7.9452H33.638L32.0246 11.0502H22.4964C20.8221 11.0502 19.3914 12.0853 18.7825 13.516H30.7461L30.1068 14.7641H11.3548L12.0245 13.516H15.5253C16.2559 10.3501 19.1174 7.9452 22.4964 7.9452ZM29.1327 16.6211H18.7825C19.3914 18.0822 20.8221 19.0868 22.4964 19.0868H27.8541L26.2407 22.1919H22.4964C19.1174 22.1919 16.2559 19.787 15.5253 16.6211H10.3502L11.0199 15.3729H29.772L29.1327 16.6211ZM34.6426 22.2223H38.7218L44.0491 11.9026L49.3763 22.2223H53.4555L46.0887 7.97563H42.0095L34.6426 22.2223ZM29.6502 25.236H31.5376L42.0095 4.96191H40.1221L29.6502 25.236Z" fill="#2F2483"/>
<path fill-rule="evenodd" clip-rule="evenodd" d="M203.563 19.0259H201.706V24.3837H205.572V22.8616H220.306V24.3837H224.172V19.0259H222.528V7.48857H207.186V11.3242C207.186 12.8767 206.881 14.4901 206.15 15.9513C205.603 17.0777 204.75 18.1431 203.563 19.0259ZM218.662 11.3242V19.0259H208.677C209.377 18.2953 209.864 17.443 210.23 16.5297C210.839 14.9772 211.082 13.2116 211.052 11.3242H218.662ZM183.441 11.3242V14.2162C184.963 14.8859 187.551 15.1294 189.864 15.2816C191.204 15.3729 193.426 15.1598 194.37 14.4597C195.953 13.3029 195.618 11.3242 193.274 11.3242H183.441ZM179.575 22.8616V7.48857H193.883C197.048 7.7321 199.484 9.86301 199.606 12.755C199.727 15.8904 198.053 17.3212 195.374 18.204C193.304 18.8737 190.991 18.9955 189.59 18.965C187.459 18.9346 185.328 18.5389 183.471 17.93V22.8311H179.575V22.8616ZM163.471 16.621L165.998 11.7504L168.525 16.621H163.471ZM155.831 22.8616H160.214L161.462 20.4567H170.503L171.751 22.8616H176.135L168.19 7.48857H163.806L155.831 22.8616ZM137.687 19.0259V17.443C139.209 16.7732 141.767 16.4079 144.111 16.3775C145.389 16.3775 146.607 16.4384 147.55 16.6515C150.168 17.169 150.351 19.0564 147.49 19.0564H137.687V19.0259ZM133.791 7.48857V22.8616H148.098C149.499 22.7398 150.777 22.2527 151.69 21.5526C153.121 20.4871 153.943 18.9955 153.852 17.9909C153.669 16.408 152.543 15.0685 150.808 14.1857C149.133 13.3334 146.82 12.755 143.745 12.6941C141.553 12.6332 139.544 13.0898 137.657 13.6987V11.3242H151.447V7.48857H133.791ZM128.768 7.48857H124.871L117.2 17.5647L109.529 7.48857H105.632V22.8616H109.498V13.8509L116.287 22.8616H118.113L124.902 13.8509V22.8616H128.768V7.48857ZM91.6596 10.0457C95.0691 10.0457 97.8697 12.3288 97.8697 15.099C97.8697 17.8996 95.0995 20.1523 91.6596 20.1523C88.2502 20.1523 85.4495 17.8692 85.4495 15.099C85.48 12.3288 88.2502 10.0457 91.6596 10.0457ZM91.6596 6.81885C97.2609 6.81885 101.827 10.5632 101.827 15.1294C101.827 19.6956 97.2609 23.44 91.6596 23.44C86.0584 23.44 81.4921 19.6956 81.4921 15.1294C81.4921 10.5327 86.0584 6.81885 91.6596 6.81885ZM60.5179 22.8616H64.9015L70.6549 11.7199L76.4084 22.8616H80.792L72.8467 7.48857H68.4631L60.5179 22.8616Z" fill="white"/>
</svg>
